<svg width="358" height="241" viewBox="0 0 358 241" fill="none" xmlns="http://www.w3.org/2000/svg">
<g clip-path="url(#clip0)">
<path d="M325.902 125.662C321.075 138.92 314.35 151.451 305.925 162.886C305.731 163.152 305.534 163.412 305.335 163.676L279.773 155.634C279.889 155.378 280.015 155.09 280.15 154.777C288.2 136.277 336.648 23.5098 331.503 0C331.995 1.9305 348.046 65.7997 325.902 125.662Z" fill="#6C63FF"/>
<path d="M310.857 164.438C310.544 164.666 310.223 164.892 309.899 165.112L290.723 159.079C290.952 158.873 291.219 158.63 291.526 158.356C296.546 153.798 311.459 140.14 325.902 125.662C341.423 110.104 356.406 93.5997 358 86.422C357.7 88.0596 348.243 137.883 310.857 164.438Z" fill="#6C63FF"/>
<path d="M339.744 241H11.0222C8.09894 241 5.29539 239.872 3.22833 237.864C1.16126 235.855 0 233.132 0 230.292C119.161 216.837 236.083 216.837 350.766 230.292C350.766 233.132 349.605 235.855 347.538 237.864C345.47 239.872 342.667 241 339.744 241Z" fill="#2F2E41"/>
<path d="M350.766 230.922L0 230.292L40.6525 163.837L40.847 163.522V17.0644C40.8469 15.2867 41.2072 13.5264 41.9073 11.884C42.6075 10.2416 43.6338 8.74926 44.9277 7.49224C46.2216 6.23523 47.7576 5.23814 49.4482 4.55792C51.1387 3.8777 52.9506 3.52767 54.7804 3.52782H294.04C295.87 3.52767 297.682 3.8777 299.373 4.55793C301.063 5.23815 302.599 6.23524 303.893 7.49225C305.187 8.74926 306.213 10.2416 306.913 11.884C307.614 13.5264 307.974 15.2867 307.974 17.0644V164.53L350.766 230.922Z" fill="#3F3D56"/>
<path d="M54.4627 12.9763C53.2594 12.9776 52.1058 13.4426 51.255 14.2692C50.4041 15.0958 49.9255 16.2166 49.9242 17.3856V150.924C49.9256 152.093 50.4042 153.214 51.255 154.041C52.1059 154.867 53.2595 155.332 54.4627 155.334H296.303C297.506 155.332 298.66 154.867 299.511 154.041C300.362 153.214 300.84 152.093 300.842 150.924V17.3856C300.84 16.2166 300.362 15.0959 299.511 14.2693C298.66 13.4427 297.506 12.9777 296.303 12.9763H54.4627Z" fill="white"/>
<path d="M56.0521 172.971C55.6803 172.971 55.3164 173.075 55.0033 173.27C54.6902 173.465 54.441 173.743 54.2849 174.071L41.7586 200.526C41.6223 200.814 41.5626 201.131 41.5852 201.447C41.6077 201.763 41.7118 202.069 41.8878 202.336C42.0637 202.603 42.3059 202.822 42.5921 202.974C42.8783 203.126 43.1993 203.206 43.5255 203.206H306.947C307.279 203.206 307.605 203.124 307.894 202.967C308.184 202.81 308.428 202.584 308.602 202.31C308.776 202.036 308.875 201.723 308.89 201.401C308.905 201.079 308.835 200.759 308.687 200.471L295.071 174.015C294.91 173.701 294.662 173.436 294.355 173.252C294.047 173.067 293.693 172.97 293.332 172.971L56.0521 172.971Z" fill="#2F2E41"/>
<path d="M174.41 10.7717C176.022 10.7717 177.328 9.50259 177.328 7.93712C177.328 6.37164 176.022 5.10257 174.41 5.10257C172.799 5.10257 171.493 6.37164 171.493 7.93712C171.493 9.50259 172.799 10.7717 174.41 10.7717Z" fill="white"/>
<path d="M148.518 208.245C148.091 208.246 147.675 208.383 147.336 208.636C146.996 208.888 146.752 209.242 146.64 209.643L143.498 220.982C143.42 221.262 143.41 221.555 143.468 221.84C143.526 222.125 143.651 222.392 143.832 222.623C144.014 222.853 144.248 223.039 144.515 223.168C144.783 223.296 145.078 223.363 145.376 223.363H205.132C205.442 223.363 205.748 223.291 206.023 223.153C206.299 223.015 206.536 222.815 206.716 222.569C206.896 222.324 207.013 222.04 207.057 221.742C207.101 221.444 207.071 221.14 206.969 220.855L202.93 209.517C202.797 209.146 202.549 208.824 202.22 208.596C201.89 208.368 201.496 208.245 201.092 208.245L148.518 208.245Z" fill="#2F2E41"/>
<path d="M307.974 161.318V163.837H40.6523L40.8537 163.522V161.318H307.974Z" fill="#2F2E41"/>
<path d="M224.864 36.5698H161.792V37.689H224.864C227.969 37.689 230.948 38.8874 233.143 41.0206C235.339 43.1538 236.573 46.047 236.573 49.0638C236.573 52.0806 235.339 54.9738 233.143 57.107C230.948 59.2402 227.969 60.4386 224.864 60.4386H129.425C126.32 60.4386 123.342 59.2402 121.146 57.107C118.951 54.9738 117.717 52.0806 117.717 49.0638C117.717 46.047 118.951 43.1538 121.146 41.0206C123.342 38.8874 126.32 37.689 129.425 37.689H132.992V36.5698H129.425C126.016 36.5718 122.747 37.8889 120.337 40.2318C117.927 42.5747 116.573 45.7515 116.573 49.0638C116.573 52.3762 117.927 55.553 120.337 57.8958C122.747 60.2387 126.016 61.5559 129.425 61.5578H224.864C226.554 61.5588 228.227 61.2363 229.788 60.6089C231.349 59.9814 232.768 59.0613 233.963 57.901C235.158 56.7407 236.106 55.3631 236.752 53.8468C237.399 52.3304 237.732 50.7052 237.732 49.0638C237.732 47.4225 237.399 45.7972 236.752 44.2809C236.106 42.7646 235.158 41.3869 233.963 40.2266C232.768 39.0664 231.349 38.1462 229.788 37.5188C228.227 36.8913 226.554 36.5688 224.864 36.5698Z" fill="#E6E6E6"/>
<path d="M224.864 75.1822H161.792V76.3014H224.864C227.968 76.3033 230.944 77.5025 233.139 79.6355C235.333 81.7685 236.565 84.6607 236.565 87.6762C236.565 90.6918 235.333 93.584 233.139 95.717C230.944 97.8499 227.968 99.0492 224.864 99.051H129.425C126.32 99.051 123.342 97.8526 121.146 95.7194C118.951 93.5862 117.717 90.693 117.717 87.6762C117.717 84.6594 118.951 81.7662 121.146 79.633C123.342 77.4998 126.32 76.3014 129.425 76.3014H132.992V75.1822H129.425C126.016 75.1842 122.747 76.5014 120.337 78.8442C117.927 81.1871 116.573 84.3639 116.573 87.6762C116.573 90.9886 117.927 94.1654 120.337 96.5082C122.747 98.8511 126.016 100.168 129.425 100.17H224.864C226.554 100.171 228.227 99.8487 229.788 99.2213C231.349 98.5938 232.768 97.6737 233.963 96.5134C235.158 95.3531 236.106 93.9755 236.752 92.4592C237.399 90.9428 237.732 89.3176 237.732 87.6762C237.732 86.0349 237.399 84.4096 236.752 82.8933C236.106 81.377 235.158 79.9993 233.963 78.839C232.768 77.6788 231.349 76.7586 229.788 76.1312C228.227 75.5037 226.554 75.1813 224.864 75.1822Z" fill="#E6E6E6"/>
<path d="M224.864 113.795H161.792V114.914H224.864C227.97 114.914 230.948 116.112 233.143 118.245C235.339 120.379 236.573 123.272 236.573 126.289C236.573 129.305 235.339 132.199 233.143 134.332C230.948 136.465 227.97 137.663 224.864 137.663H129.425C126.32 137.663 123.342 136.465 121.146 134.332C118.951 132.199 117.717 129.305 117.717 126.289C117.717 123.272 118.951 120.379 121.146 118.245C123.342 116.112 126.32 114.914 129.425 114.914H132.992V113.795H129.425C126.015 113.795 122.744 115.111 120.332 117.454C117.92 119.797 116.565 122.975 116.565 126.289C116.565 129.602 117.92 132.78 120.332 135.123C122.744 137.466 126.015 138.783 129.425 138.783H224.864C226.553 138.783 228.225 138.459 229.786 137.832C231.346 137.204 232.764 136.283 233.958 135.123C235.152 133.963 236.099 132.586 236.746 131.07C237.392 129.554 237.725 127.929 237.725 126.289C237.725 124.648 237.392 123.023 236.746 121.507C236.099 119.992 235.152 118.614 233.958 117.454C232.764 116.294 231.346 115.374 229.786 114.746C228.225 114.118 226.553 113.795 224.864 113.795Z" fill="#E6E6E6"/>
<path d="M140.111 33.6131C139.212 33.6272 138.355 33.984 137.725 34.6065C137.095 35.229 136.741 36.0672 136.741 36.9405C136.741 37.8137 137.095 38.652 137.725 39.2744C138.355 39.8969 139.212 40.2537 140.111 40.2679H155.137C155.586 40.2751 156.033 40.1961 156.452 40.0355C156.87 39.8749 157.252 39.6358 157.575 39.3319C157.898 39.028 158.157 38.6652 158.336 38.2643C158.515 37.8633 158.61 37.4321 158.618 36.9951C158.625 36.5581 158.544 36.124 158.379 35.7176C158.213 35.3112 157.967 34.9403 157.654 34.6263C157.342 34.3122 156.968 34.0611 156.556 33.8873C156.143 33.7134 155.699 33.6202 155.249 33.6131C155.212 33.6125 155.174 33.6125 155.137 33.6131H140.111Z" fill="#3F3D56"/>
<path d="M140.111 72.7851C139.212 72.7992 138.355 73.1561 137.725 73.7785C137.095 74.401 136.741 75.2392 136.741 76.1125C136.741 76.9857 137.095 77.824 137.725 78.4464C138.355 79.0689 139.212 79.4257 140.111 79.4399H155.137C156.045 79.4544 156.922 79.1177 157.575 78.5039C158.228 77.8902 158.603 77.0496 158.618 76.1671C158.633 75.2846 158.286 74.4325 157.654 73.7983C157.023 73.164 156.157 72.7996 155.249 72.7851C155.212 72.7845 155.174 72.7845 155.137 72.7851H140.111Z" fill="#3F3D56"/>
<path d="M140.111 110.838C139.212 110.852 138.356 111.209 137.725 111.831C137.095 112.454 136.742 113.292 136.742 114.165C136.742 115.038 137.095 115.877 137.725 116.499C138.356 117.122 139.212 117.478 140.111 117.493H155.137C156.045 117.507 156.922 117.171 157.575 116.557C158.228 115.943 158.603 115.102 158.618 114.22C158.633 113.337 158.286 112.485 157.654 111.851C157.023 111.217 156.157 110.852 155.249 110.838C155.212 110.837 155.174 110.837 155.137 110.838H140.111Z" fill="#3F3D56"/>
<path d="M134.152 45.7364C133.253 45.7506 132.396 46.1074 131.765 46.7299C131.135 47.3523 130.782 48.1906 130.782 49.0638C130.782 49.9371 131.135 50.7753 131.765 51.3978C132.396 52.0202 133.253 52.3771 134.152 52.3912H220.026C220.476 52.3984 220.922 52.3194 221.341 52.1588C221.759 51.9983 222.141 51.7592 222.464 51.4553C222.787 51.1514 223.046 50.7886 223.225 50.3876C223.404 49.9867 223.5 49.5554 223.507 49.1185C223.514 48.6815 223.433 48.2474 223.268 47.841C223.103 47.4345 222.856 47.0637 222.544 46.7496C222.231 46.4356 221.857 46.1845 221.445 46.0106C221.032 45.8368 220.588 45.7436 220.138 45.7364C220.101 45.7358 220.063 45.7358 220.026 45.7364H134.152Z" fill="#6C63FF"/>
<path d="M134.152 84.3488C133.253 84.3631 132.396 84.7199 131.766 85.3424C131.135 85.9648 130.782 86.803 130.782 87.6762C130.782 88.5494 131.135 89.3876 131.766 90.0101C132.396 90.6326 133.253 90.9894 134.152 91.0036H220.026C220.475 91.0108 220.922 90.9318 221.341 90.7713C221.759 90.6107 222.141 90.3716 222.464 90.0677C222.787 89.7638 223.046 89.401 223.225 89C223.404 88.5991 223.5 88.1678 223.507 87.7309C223.514 87.2939 223.433 86.8598 223.268 86.4534C223.102 86.0469 222.856 85.6761 222.544 85.362C222.231 85.048 221.857 84.7969 221.445 84.623C221.032 84.4492 220.588 84.356 220.138 84.3488C220.101 84.3482 220.063 84.3482 220.026 84.3488H134.152Z" fill="#6C63FF"/>
<path d="M134.152 122.961C133.253 122.975 132.396 123.332 131.766 123.955C131.135 124.577 130.782 125.415 130.782 126.289C130.782 127.162 131.135 128 131.766 128.623C132.396 129.245 133.253 129.602 134.152 129.616H220.026C220.475 129.623 220.922 129.544 221.341 129.384C221.759 129.223 222.141 128.984 222.464 128.68C222.787 128.376 223.046 128.013 223.225 127.612C223.404 127.212 223.5 126.78 223.507 126.343C223.514 125.906 223.433 125.472 223.268 125.066C223.102 124.659 222.856 124.288 222.544 123.974C222.231 123.66 221.857 123.409 221.445 123.235C221.032 123.062 220.588 122.968 220.138 122.961C220.101 122.961 220.063 122.961 220.026 122.961H134.152Z" fill="#E6E6E6"/>
<path d="M102.257 55.4652C106.045 55.4652 109.116 52.4818 109.116 48.8017C109.116 45.1215 106.045 42.1382 102.257 42.1382C98.4689 42.1382 95.3981 45.1215 95.3981 48.8017C95.3981 52.4818 98.4689 55.4652 102.257 55.4652Z" fill="#6C63FF"/>
<path d="M101.621 51.5394L99.6226 49.0434L100.784 48.1653L101.731 49.3471L104.927 46.0693L105.996 47.0532L101.621 51.5394Z" fill="white"/>
<path d="M102.257 94.0776C106.045 94.0776 109.116 91.0943 109.116 87.4141C109.116 83.734 106.045 80.7506 102.257 80.7506C98.4689 80.7506 95.3981 83.734 95.3981 87.4141C95.3981 91.0943 98.4689 94.0776 102.257 94.0776Z" fill="#6C63FF"/>
<path d="M101.621 90.1519L99.6226 87.656L100.784 86.7778L101.731 87.9596L104.927 84.6818L105.996 85.6657L101.621 90.1519Z" fill="white"/>
<path d="M102.257 132.69C106.045 132.69 109.116 129.707 109.116 126.027C109.116 122.346 106.045 119.363 102.257 119.363C98.4689 119.363 95.3981 122.346 95.3981 126.027C95.3981 129.707 98.4689 132.69 102.257 132.69Z" fill="#E6E6E6"/>
<path d="M252.594 55.4652C256.382 55.4652 259.453 52.4818 259.453 48.8017C259.453 45.1215 256.382 42.1382 252.594 42.1382C248.806 42.1382 245.735 45.1215 245.735 48.8017C245.735 52.4818 248.806 55.4652 252.594 55.4652Z" fill="#E6E6E6"/>
<path d="M252.594 94.0776C256.382 94.0776 259.453 91.0943 259.453 87.4141C259.453 83.734 256.382 80.7506 252.594 80.7506C248.806 80.7506 245.735 83.734 245.735 87.4141C245.735 91.0943 248.806 94.0776 252.594 94.0776Z" fill="#E6E6E6"/>
<path d="M252.594 132.69C256.382 132.69 259.453 129.707 259.453 126.027C259.453 122.346 256.382 119.363 252.594 119.363C248.806 119.363 245.735 122.346 245.735 126.027C245.735 129.707 248.806 132.69 252.594 132.69Z" fill="#E6E6E6"/>
<path d="M101.621 128.764L99.6226 126.268L100.784 125.39L101.731 126.572L104.927 123.294L105.996 124.278L101.621 128.764Z" fill="white"/>
<path d="M250.861 46.6614L250.29 47.216L254.126 50.942L254.697 50.3874L250.861 46.6614Z" fill="white"/>
<path d="M254.327 46.6613L250.492 50.3874L251.063 50.942L254.898 47.216L254.327 46.6613Z" fill="white"/>
<path d="M250.861 85.2738L250.29 85.8284L254.126 89.5544L254.697 88.9998L250.861 85.2738Z" fill="white"/>
<path d="M254.327 85.2737L250.492 88.9998L251.063 89.5544L254.898 85.8284L254.327 85.2737Z" fill="white"/>
<path d="M250.861 123.886L250.29 124.441L254.126 128.167L254.697 127.612L250.861 123.886Z" fill="white"/>
<path d="M254.327 123.886L250.492 127.612L251.063 128.167L254.898 124.441L254.327 123.886Z" fill="white"/>
<path d="M103.576 123.357C104.174 122.973 104.678 122.468 105.055 121.876C105.432 121.285 105.673 120.62 105.76 119.93C105.847 119.239 105.779 118.538 105.56 117.876C105.342 117.213 104.978 116.604 104.493 116.091L97.9089 109.118L91.5845 112.229L96.4252 121.518C96.7408 122.123 97.1847 122.657 97.7278 123.084C98.2708 123.511 98.9008 123.822 99.5762 123.996C100.252 124.169 100.957 124.202 101.647 124.092C102.336 123.982 102.994 123.732 103.576 123.357Z" fill="#FFB8B8"/>
<path d="M18.461 144.066C19.1725 143.985 19.8575 143.756 20.4689 143.393C21.0804 143.031 21.6036 142.544 22.0025 141.966C22.4014 141.388 22.6665 140.733 22.7796 140.046C22.8927 139.359 22.851 138.656 22.6574 137.986L20.0251 128.875H12.9362V139.286C12.9362 139.965 13.084 140.636 13.37 141.255C13.6559 141.875 14.0735 142.428 14.5953 142.88C15.1171 143.331 15.7313 143.67 16.3975 143.874C17.0638 144.079 17.767 144.144 18.461 144.066Z" fill="#FFB8B8"/>
<path d="M59.4075 212.794L72.7979 210.754L67.2844 205.142H59.4075V212.794Z" fill="#FFB8B8"/>
<path d="M16.3494 213.304L30.2645 216.875C27.7016 211.71 26.1233 207.14 27.1139 204.122L20.5502 203.356L16.3494 213.304Z" fill="#FFB8B8"/>
<path d="M19.2373 204.632L27.3766 206.162L49.6933 136.272L59.1451 205.907H67.8094L67.0215 107.449H33.4151L19.2373 204.632Z" fill="#575A88"/>
<path d="M61.9711 215.892L75.2161 211.659C75.5675 211.547 75.8899 211.362 76.1613 211.118C76.4327 210.874 76.6469 210.576 76.7891 210.244C76.9313 209.912 76.9983 209.554 76.9856 209.195C76.9728 208.836 76.8806 208.484 76.7152 208.162C76.488 207.721 76.1316 207.355 75.6908 207.11C75.2499 206.865 74.7443 206.751 74.2375 206.785L71.2331 206.982L70.0556 206.338C69.9316 206.27 69.7889 206.242 69.6473 206.256C69.5058 206.271 69.3724 206.328 69.2658 206.42C69.1592 206.511 69.0847 206.633 69.0525 206.768C69.0204 206.902 69.0322 207.044 69.0864 207.171L70.1722 209.733L59.1451 208.968L58.601 213.197C58.547 213.617 58.6032 214.043 58.7643 214.436C58.9254 214.829 59.1862 215.176 59.5225 215.445C59.8588 215.714 60.2597 215.896 60.6878 215.974C61.1159 216.052 61.5574 216.024 61.9711 215.892Z" fill="#575A88"/>
<path d="M17.2048 217.837L31.6026 218.744C31.9846 218.768 32.3674 218.712 32.725 218.58C33.0827 218.447 33.4067 218.241 33.6752 217.976C33.9436 217.711 34.1502 217.393 34.2807 217.044C34.4113 216.694 34.4628 216.321 34.4318 215.95C34.3892 215.442 34.1927 214.956 33.867 214.555C33.5412 214.155 33.1008 213.856 32.6011 213.698L29.6384 212.76L28.7641 211.7C28.672 211.589 28.5463 211.507 28.4046 211.468C28.2629 211.429 28.1122 211.434 27.9735 211.482C27.8347 211.53 27.7148 211.619 27.6303 211.736C27.5459 211.853 27.5012 211.993 27.5024 212.136L27.5261 215.003L17.2446 210.13L15.0411 213.986C14.8223 214.368 14.7067 214.799 14.705 215.237C14.7033 215.675 14.8157 216.106 15.0316 216.49C15.2475 216.875 15.56 217.2 15.94 217.435C16.3199 217.671 16.755 217.809 17.2048 217.837Z" fill="#575A88"/>
<path d="M47.8554 52.3534C53.2205 52.3534 57.5698 48.128 57.5698 42.9157C57.5698 37.7034 53.2205 33.478 47.8554 33.478C42.4903 33.478 38.1411 37.7034 38.1411 42.9157C38.1411 48.128 42.4903 52.3534 47.8554 52.3534Z" fill="#FFB8B8"/>
<path d="M41.5542 60.2607H54.9443V47.7621H41.5542C42.6608 51.6221 42.5177 55.8279 41.5542 60.2607Z" fill="#FFB8B8"/>
<path d="M31.5773 108.724L68.3344 109.235L72.0101 71.5077C72.0101 69.0463 71.2166 66.6467 69.741 64.6459C68.2654 62.645 66.1818 61.1434 63.7828 60.3519L58.0949 58.4751L54.9443 54.9041C50.9665 54.069 46.6385 54.2714 42.0793 55.1592L38.6662 60.0056L34.9907 61.1452C32.4929 61.9197 30.322 63.462 28.8052 65.5397C27.2885 67.6174 26.5081 70.1179 26.5817 72.6641C29.3167 86.3883 31.4433 99.1436 31.5773 108.724Z" fill="#6C63FF"/>
<path d="M11.6235 128.875L20.8127 129.896L31.3148 88.8288L32.365 62.3012L32.0549 62.447C29.6241 63.5897 27.5006 65.2666 25.8526 67.3449C24.2046 69.4231 23.0774 71.8457 22.5603 74.4206L11.6235 128.875Z" fill="#6C63FF"/>
<path d="M91.9639 113.571L99.0528 110.255L78.2604 72.5617C75.2407 67.0875 70.3317 62.8223 64.3961 60.5157L68.3344 84.4926L91.9639 113.571Z" fill="#6C63FF"/>
<path d="M41.8513 51.4102C41.8513 51.4102 51.3771 50.8613 51.5833 49.2606C51.7896 47.6598 53.1804 44.0083 54.828 44.2086C56.4757 44.409 61.042 39.0727 60.064 36.9215C59.0861 34.7703 54.4703 26.8503 45.047 30.5006C35.6237 34.151 36.7036 43.3055 37.6815 45.4567C38.6595 47.6079 41.8513 51.4102 41.8513 51.4102Z" fill="#2F2E41"/>
<path d="M274.978 167.089C274.874 167.09 274.773 167.123 274.69 167.184C274.608 167.246 274.548 167.332 274.521 167.43L273.756 170.191C273.737 170.259 273.734 170.331 273.748 170.4C273.762 170.469 273.793 170.534 273.837 170.591C273.881 170.647 273.938 170.692 274.003 170.723C274.069 170.754 274.14 170.771 274.213 170.771H288.764C288.84 170.771 288.914 170.753 288.981 170.72C289.049 170.686 289.106 170.637 289.15 170.577C289.194 170.518 289.222 170.449 289.233 170.376C289.244 170.303 289.237 170.229 289.212 170.16L288.228 167.399C288.196 167.309 288.135 167.23 288.055 167.175C287.975 167.119 287.879 167.089 287.781 167.089H274.978Z" fill="#6C63FF"/>
<path d="M253.731 167.089C253.627 167.09 253.526 167.123 253.443 167.184C253.361 167.246 253.301 167.332 253.274 167.43L252.509 170.191C252.49 170.259 252.487 170.331 252.502 170.4C252.516 170.469 252.546 170.534 252.59 170.591C252.634 170.647 252.691 170.692 252.756 170.723C252.822 170.754 252.893 170.771 252.966 170.771H267.518C267.593 170.771 267.667 170.753 267.735 170.72C267.802 170.686 267.86 170.637 267.903 170.577C267.947 170.518 267.976 170.449 267.986 170.376C267.997 170.303 267.99 170.229 267.965 170.16L266.981 167.399C266.949 167.309 266.889 167.23 266.808 167.175C266.728 167.119 266.632 167.089 266.534 167.089H253.731Z" fill="#6C63FF"/>
</g>
<defs>
<clipPath id="clip0">
<rect width="358" height="241" fill="white"/>
</clipPath>
</defs>
</svg>
